# xmcd
#
# Track frame offsets:
#	150
#	12906
#	27705
#	38789
#	50743
#	61475
#	74527
#	86288
#	98835
#	111570
#	121761
#	135215
#	146689
#	158217
#	172168
#	184643
#	195354
#	205675
#	216412
#	226085
#	241635
#
# Disc length: 3353 seconds
#
# Revision: 1
# Processed by: cddbd v1.5PL3 Copyright (c) Steve Scherf et al.
# Submitted via: audiograbber 1.82.02
#
DISCID=250d1715
DTITLE=Mickey Gilley - Room Full of Roses and Gilley' Smokin'
DYEAR=1900
DGENRE=Country
TTITLE0=Room Full of Roses
TTITLE1=Faded Love
TTITLE2=Plastic Saddle
TTITLE3=Someday
TTITLE4=Don't Be Angry
TTITLE5=I Overlooked An Orchid
TTITLE6=San Anotnio Rose
TTITLE7=Please Love Me Forever
TTITLE8=Swinging Doors
TTITLE9=She Called Me Baby
TTITLE10=Don't The Girls All Get Prettier At Closing Time
TTITLE11=There's A Song On The Jukebox
TTITLE12=L-O-V-E
TTITLE13=What Is It
TTITLE14=My Babe
TTITLE15=Bring It On Home To Me
TTITLE16=How's My Ex Treating You
TTITLE17=Lawdy Miss Clawdy
TTITLE18=I Just Can't Get Her Out Of My Mind
TTITLE19=I'll Fly Away
TTITLE20=Roll You Like A Wheel
EXTD=
EXTT0=
EXTT1=
EXTT2=
EXTT3=
EXTT4=
EXTT5=
EXTT6=
EXTT7=
EXTT8=
EXTT9=
EXTT10=
EXTT11=
EXTT12=
EXTT13=
EXTT14=
EXTT15=
EXTT16=
EXTT17=
EXTT18=
EXTT19=
EXTT20=
PLAYORDER=
